<svg id="visual" viewBox="0 0 900 600" width="900" height="600" xmlns="http://www.w3.org/2000/svg" xmlns:xlink="http://www.w3.org/1999/xlink" version="1.1"><rect x="0" y="0" width="900" height="600" fill="#e3e4e0"></rect><defs><linearGradient id="grad1_0" x1="33.3%" y1="100%" x2="100%" y2="0%"><stop offset="20%" stop-color="#e3e4e0" stop-opacity="1"></stop><stop offset="80%" stop-color="#e3e4e0" stop-opacity="1"></stop></linearGradient></defs><defs><linearGradient id="grad2_0" x1="0%" y1="100%" x2="66.7%" y2="0%"><stop offset="20%" stop-color="#e3e4e0" stop-opacity="1"></stop><stop offset="80%" stop-color="#e3e4e0" stop-opacity="1"></stop></linearGradient></defs><g transform="translate(900, 600)"><path d="M-486.7 0C-454.2 -40.3 -421.6 -80.6 -413.7 -134.4C-405.8 -188.2 -422.5 -255.5 -393.8 -286.1C-365.1 -316.7 -291.1 -310.7 -246.3 -339C-201.4 -367.3 -185.8 -430 -149.6 -460.3C-113.4 -490.7 -56.7 -488.7 0 -486.7L0 0Z" fill="#fbf9f9"></path></g><g transform="translate(0, 0)"><path d="M486.7 0C469.3 46.1 451.8 92.2 440.3 143.1C428.9 194 423.4 249.7 393.8 286.1C364.2 322.5 310.6 339.5 267.4 368.1C224.3 396.7 191.8 436.7 148.9 458.4C106.1 480.1 53.1 483.4 0 486.7L0 0Z" fill="#fbf9f9"></path></g></svg>