<svg width="1512" height="274" viewBox="0 0 1512 274" fill="none" xmlns="http://www.w3.org/2000/svg">
<path d="M0 248.773L42 248.282C84 247.628 168 246.646 252 227.169C336 207.857 420 170.213 504 172.996C588 175.614 672 218.822 756 225.533C840 232.407 924 202.947 1008 178.888C1092 154.992 1176 136.334 1260 153.028C1344 169.722 1428 221.441 1470 247.464L1512 273.323V0H1470C1428 0 1344 0 1260 0C1176 0 1092 0 1008 0C924 0 840 0 756 0C672 0 588 0 504 0C420 0 336 0 252 0C168 0 84 0 42 0H0V248.773Z" fill="#E3E4E0"/>
</svg>
