<svg width="1512" height="351" viewBox="0 0 1512 351" fill="none" xmlns="http://www.w3.org/2000/svg">
<path d="M0 77.6768L50.4 92.7341C100.8 107.628 201.6 137.742 302.4 124.322C403.2 110.901 504 54.2724 604.8 54.7634C705.6 55.2544 806.4 113.192 907.2 121.539C1008 130.05 1108.8 89.1334 1209.6 60.8191C1310.4 32.3411 1411.2 16.6291 1461.6 8.6094L1512 0.753418V352.637H1461.6C1411.2 352.637 1310.4 352.637 1209.6 352.637C1108.8 352.637 1008 352.637 907.2 352.637C806.4 352.637 705.6 352.637 604.8 352.637C504 352.637 403.2 352.637 302.4 352.637C201.6 352.637 100.8 352.637 50.4 352.637H0V77.6768Z" fill="#E3E4E0"/>
</svg>
